# AST/ASF file generated using VICON BodyLanguage
# -----------------------------------------------
:version 1.10
:name VICON
:units
  mass 1.0
  length 0.45
  angle deg
:documentation
   .ast/.asf automatically generated from VICON data using
   VICON BodyBuilder and BodyLanguage model FoxedUp or BRILLIANT.MOD
:root
   order TX TY TZ RX RY RZ
   axis XYZ
   position 0 0 0  
   orientation 0 0 0 
:bonedata
  begin
     id 1 
     name lhipjoint
     direction 0.630082 -0.636569 0.44472 
     length 2.82754 
     axis 0 0 0  XYZ
  end
  begin
     id 2 
     name lfemur
     direction 0.34202 -0.939693 0  
     length 7.26371  
     axis 0 0 20  XYZ
    dof rx ry rz
    limits (-160.0 20.0)
           (-70.0 70.0)
           (-60.0 70.0)
  end
  begin
     id 3 
     name ltibia
     direction 0.34202 -0.939693 0   
     length 7.88616   
     axis 0 0 20   XYZ
    dof rx
    limits (-10.0 170.0)
  end
  begin
     id 4 
     name lfoot
     direction 0.0603448 -0.165796 0.984312   
     length 1.77861   
     axis -90 7.62852e-016 20   XYZ
    dof rx rz
    limits (-45.0 90.0)
           (-70.0 20.0)
  end
  begin
     id 5 
     name ltoes
     direction 1.53577e-011 -4.21876e-011 1   
     length 0.902235   
     axis -90 7.62852e-016 20   XYZ
    dof rx
    limits (-90.0 20.0)
  end
  begin
     id 6 
     name rhipjoint
     direction -0.656778 -0.61817 0.431866   
     length 2.9117  
     axis 0 0 0  XYZ 
  end
  begin
     id 7 
     name rfemur
     direction -0.34202 -0.939693 0   
     length 6.81603   
     axis 0 0 -20   XYZ
    dof rx ry rz
    limits (-160.0 20.0)
           (-70.0 70.0)
           (-70.0 60.0)
  end
  begin
     id 8 
     name rtibia
     direction -0.34202 -0.939693 0   
     length 8.05997   
     axis 0 0 -20   XYZ
    dof rx
    limits (-10.0 170.0)
 end
 begin
     id 9 
     name rfoot
     direction -0.0862404 -0.236944 0.967688   
     length 1.84899  
     axis -90 -7.62852e-016 -20   XYZ
    dof rx rz
    limits (-45.0 90.0)
           (-20.0 70.0)
  end
  begin
     id 10 
     name rtoes
     direction -1.53561e-011 -4.21798e-011 1   
     length 0.931579   
     axis -90 -7.62852e-016 -20   XYZ
    dof rx
    limits (-90.0 20.0)
  end
  begin
     id 11 
     name lowerback
     direction -0.0110203 0.991769 -0.127564   
     length 2.05686   
     axis 0 0 0   XYZ
    dof rx ry rz
    limits (-20.0 45.0)
           (-30.0 30.0)
           (-30.0 30.0)
  end
  begin
     id 12 
     name upperback
     direction 0.0109719 0.99993 -0.00432479   
     length 2.06234   
     axis 0 0 0   XYZ
    dof rx ry rz
    limits (-20.0 45.0)
           (-30.0 30.0)
           (-30.0 30.0)
  end
  begin
     id 13 
     name thorax
     direction 0.0173308 0.998351 0.0547306   
     length 2.09856   
     axis 0 0 0   XYZ
    dof rx ry rz
    limits (-20.0 45.0)
           (-30.0 30.0)
           (-30.0 30.0)
  end
  begin
     id 14 
     name lowerneck
     direction -0.0311736 0.989033 0.144366   
     length 1.98151   
     axis 0 0 0   XYZ
    dof rx ry rz
    limits (-20.0 45.0)
           (-30.0 30.0)
           (-30.0 30.0)
  end
  begin
     id 15 
     name upperneck
     direction 0.0421057 0.975772 -0.214698   
     length 2.01457   
     axis 0 0 0   XYZ
    dof rx ry rz
    limits (-20.0 45.0)
           (-30.0 30.0)
           (-30.0 30.0)
  end
  begin
     id 16
     name head
     direction 0.0136911 0.995958 -0.0887718  
     length 2.03562  
     axis 0 0 0   XYZ
    dof rx ry rz
    limits (-20.0 45.0)
           (-30.0 30.0)
           (-30.0 30.0)
  end
  begin
     id 17 
     name lclavicle
     direction 0.915335 0.396201 0.0720134  
     length 4.16217  
     axis 0 0 0   XYZ
    dof ry rz
    limits (-20.0 10.0)
           (0.0 20.0)
  end
  begin
     id 18 
     name lhumerus
     direction 1 -4.48965e-011 6.383e-018   
     length 4.93042   
     axis -180 -30 -90   XYZ
    dof rx ry rz
    limits (-60.0 90.0)
           (-90.0 90.0)
           (-90.0 90.0)
  end
  begin
     id 19
     name lradius
     direction 1 -4.48972e-011 8.8689e-027   
     length 3.68177   
     axis -180 -30 -90   XYZ
    dof rx
    limits (-10.0 170.0)
  end
  begin
     id 20
     name lwrist
     direction 1 -4.48953e-011 1.17971e-026   
     length 1.84089   
     axis -7.69454e-015 90 90   XYZ
    dof ry
    limits (-180.0 0.0)
 end
  begin
     id 21 
     name lhand
     direction 1 -4.49027e-011 2.35802e-026   
     length 0.721479   
     axis -1.50533e-014 90 90   XYZ
    dof rx rz
    limits (-90.0 90.0)
           (-45.0 45.0)
  end
  begin
     id 22 
     name lfingers
     direction 1 -4.48915e-011 4.72027e-026   
     length 0.581675   
     axis -3.01059e-014 90 90   XYZ
    dof rx
    limits (0.0 90.0)
  end
  begin
     id 23
     name lthumb
     direction 0.707107 -6.34948e-011 0.707107   
     length 0.835172   
     axis -90 45 -5.12164e-014   XYZ
    dof rx rz
    limits (-45.0 45.0)
           (-45.0 45.0)
  end
  begin
     id 24 
     name rclavicle
     direction -0.882781 0.469197 0.0234974   
     length 3.95647  
     axis 0 0 0   XYZ 
    dof ry rz
    limits (-10.0 20.0)
           (-20.0 0.0)
  end
  begin
     id 25 
     name rhumerus
     direction -1 -4.48965e-011 -1.54906e-018  
     length 5.07905   
     axis -180 30 90   XYZ
    dof rx ry rz
    limits (-90.0 60.0)
           (-90.0 90.0)
           (-90.0 90.0)
  end
  begin
     id 26 
     name rradius
     direction -1 -4.48972e-011 5.47489e-027   
     length 3.54394   
     axis -180 30 90   XYZ
    dof rx
    limits (-10.0 170.0)
  end
  begin
     id 27 
     name rwrist
     direction -1 -4.48955e-011 1.17969e-026   
     length 1.77197   
     axis -7.69454e-015 -90 -90   XYZ
    dof ry
    limits (-180.0 0.0)
  end
  begin
     id 28
     name rhand
     direction -1 -4.48982e-011 2.35888e-026   
     length 0.681156   
     axis -1.50533e-014 -90 -90   XYZ
    dof rx rz
    limits (-90.0 90.0)
           (-45.0 45.0)
  end
  begin
     id 29
     name rfingers
     direction -1 -4.48955e-011 4.71877e-026   
     length 0.549165   
     axis -3.01059e-014 -90 -90   XYZ
    dof rx
    limits (0.0 90.0)
  end
  begin
     id 30
     name rthumb
     direction -0.707107 -6.3491e-011 0.707107   
     length 0.788495   
     axis -90 -45 5.12164e-014   XYZ
    dof rx rz
    limits (-45.0 45.0)
           (-45.0 45.0)
  end
:hierarchy
  begin
    root lhipjoint rhipjoint lowerback
    lhipjoint lfemur
    lfemur ltibia
    ltibia lfoot
    lfoot ltoes
    rhipjoint rfemur
    rfemur rtibia
    rtibia rfoot
    rfoot rtoes
    lowerback upperback
    upperback thorax
    thorax lowerneck lclavicle rclavicle
    lowerneck upperneck
    upperneck head
    lclavicle lhumerus
    lhumerus lradius
    lradius lwrist
    lwrist lhand lthumb
    lhand lfingers
    rclavicle rhumerus
    rhumerus rradius
    rradius rwrist
    rwrist rhand rthumb
    rhand rfingers
  end

#!OML:ASF H:\Bending\Project 1\Capture day 1\Session 1\Subject.ASF
:FULLY-SPECIFIED
:DEGREES
177
root -10.5341 17.6687 -16.9553 -160.628 87.7934 -167.776
lowerback 16.4712 -0.958828 1.11915
upperback 1.39554 -0.754589 2.33479
thorax -7.73279 -0.313267 2.03247
lowerneck -24.1001 -4.27718 -6.87303
upperneck 23.4987 -4.26993 3.34425
head 11.9483 -2.04979 1.66673
rclavicle 9.93923e-016 -1.74931e-014
rhumerus -32.2462 19.9379 -88.8858
rradius 79.9151
rwrist -6.22102
rhand -24.709 -11.4756
rfingers 7.12502
rthumb 1.79263 -41.4479
lclavicle 9.93923e-016 -1.74931e-014
lhumerus -32.3993 -29.2252 102.26
lradius 80.3441
lwrist 26.3877
lhand -59.0869 9.71036
lfingers 7.12502
lthumb -31.2822 37.0577
rfemur -12.6439 -9.37014 13.845
rtibia 25.6241
rfoot -18.0048 -13.6718
rtoes -5.54712
lfemur -22.3912 5.03893 -15.1835
ltibia 36.7693
lfoot -19.7505 -3.12555
ltoes -21.2475
178
root -10.4567 17.7181 -16.9417 -156.565 87.8378 -163.29
lowerback 15.7212 -0.920289 1.06672
upperback 1.26679 -0.739863 2.346
thorax -7.45495 -0.30999 2.05673
lowerneck -24.0573 -4.268 -6.81095
upperneck 24.1263 -4.27063 3.30448
head 12.1825 -2.04731 1.64677
rclavicle -1.2921e-014 -1.59028e-015
rhumerus -33.1339 20.2906 -89.2239
rradius 80.9667
rwrist -6.97642
rhand -25.4162 -11.0223
rfingers 7.12502
rthumb 1.10961 -40.9992
lclavicle -1.2921e-014 -1.59028e-015
lhumerus -33.5943 -29.2743 102.416
lradius 82.2949
lwrist 27.1831
lhand -58.6303 8.50434
lfingers 7.12502
lthumb -30.847 35.9349
rfemur -10.3911 -8.48267 14.0324
rtibia 22.8914
rfoot -17.1195 -14.5008
rtoes -5.84595
lfemur -20.8037 4.40215 -14.9141
ltibia 35.3198
lfoot -19.7508 -2.17866
ltoes -21.9972
179
root -10.381 17.7629 -16.9287 -153.06 87.9001 -159.405
lowerback 14.9785 -0.878605 1.00749
upperback 1.12877 -0.722254 2.33808
thorax -7.18994 -0.305331 2.06452
lowerneck -23.9887 -4.26301 -6.73329
upperneck 24.6835 -4.27597 3.23885
head 12.3856 -2.04873 1.61341
rclavicle 1.33186e-014 -7.95139e-015
rhumerus -33.8838 20.5144 -89.6289
rradius 82
rwrist -7.73915
rhand -25.6543 -10.9166
rfingers 7.12502
rthumb 0.87965 -40.8946
lclavicle 1.33186e-014 -7.95139e-015
lhumerus -34.8291 -29.2232 102.551
lradius 84.3372
lwrist 27.7686
lhand -57.9019 7.19425
lfingers 7.12502
lthumb -30.1523 34.7538
rfemur -8.1553 -7.57565 14.1997
rtibia 20.0785
rfoot -16.1251 -15.402
rtoes -6.32756
lfemur -19.3087 3.66998 -14.7115
ltibia 33.9504
lfoot -19.7957 -1.07795
ltoes -23.1761
180
root -10.3085 17.8027 -16.917 -150.358 87.9833 -156.385
lowerback 14.2513 -0.8385 0.959146
upperback 0.970303 -0.704762 2.30841
thorax -6.95448 -0.301284 2.04426
lowerneck -23.8837 -4.26718 -6.69169
upperneck 25.1704 -4.28301 3.17795
head 12.5567 -2.05379 1.58734
rclavicle -8.54774e-015 -1.59028e-015
rhumerus -34.6702 20.6072 -90.1068
rradius 83.0817
rwrist -8.63557
rhand -25.4263 -11.2358
rfingers 7.12502
rthumb 1.09982 -41.2127
lclavicle -8.54774e-015 -1.59028e-015
lhumerus -36.1307 -29.1386 102.679
lradius 86.4698
lwrist 28.1283
lhand -56.9612 5.86808
lfingers 7.12502
lthumb -29.2545 33.5878
rfemur -5.97006 -6.66867 14.3339
rtibia 17.1966
rfoot -15.0251 -16.3452
rtoes -6.97829
lfemur -17.9389 2.83845 -14.5901
ltibia 32.6725
lfoot -19.8762 0.13999
ltoes -24.5494
181
root -10.2408 17.8369 -16.9064 -148.448 88.0904 -154.24
lowerback 13.5389 -0.800407 0.932814
upperback 0.782644 -0.686206 2.25767
thorax -6.75759 -0.297527 1.99047
lowerneck -23.7447 -4.28174 -6.71674
upperneck 25.5993 -4.28817 3.14273
head 12.7018 -2.06126 1.58248
rclavicle -9.93923e-016 1.43125e-014
rhumerus -35.4909 20.6206 -90.663
rradius 84.2384
rwrist -9.78931
rhand -24.9464 -12.0956
rfingers 7.12502
rthumb 1.56329 -42.0696
lclavicle -9.93923e-016 1.43125e-014
lhumerus -37.488 -29.096 102.812
lradius 88.6431
lwrist 28.2913
lhand -55.8597 4.59544
lfingers 7.12502
lthumb -28.2022 32.4936
rfemur -3.88022 -5.77447 14.4328
rtibia 14.2724
rfoot -13.8498 -17.2765
rtoes -7.63073
lfemur -16.7357 1.94374 -14.5461
ltibia 31.5055
lfoot -19.9796 1.3947
ltoes -25.8172
182
root -10.1794 17.8653 -16.8964 -147.085 88.2252 -152.736
lowerback 12.8406 -0.759579 0.924033
upperback 0.563796 -0.660869 2.18944
thorax -6.60088 -0.290987 1.90855
lowerneck -23.5885 -4.30299 -6.8026
upperneck 25.989 -4.28808 3.13411
head 12.8309 -2.06905 1.59896
rclavicle 5.06901e-015 -4.37326e-015
rhumerus -36.3443 20.5959 -91.2986
rradius 85.5051
rwrist -11.2415
rhand -24.5724 -13.4667
rfingers 7.12502
rthumb 1.9245 -43.4378
lclavicle 5.06901e-015 -4.37326e-015
lhumerus -38.8481 -29.1518 102.958
lradius 90.7621
lwrist 28.316
lhand -54.6464 3.41709
lfingers 7.12502
lthumb -27.0419 31.501
rfemur -1.91686 -4.89439 14.5016
rtibia 11.3297
rfoot -12.6426 -18.1436
rtoes -8.04416
lfemur -15.7294 1.05415 -14.561
ltibia 30.4681
lfoot -20.0928 2.59318
ltoes -26.7666
183
root -10.125 17.888 -16.8862 -145.876 88.3935 -151.478
lowerback 12.1627 -0.707987 0.911637
upperback 0.320617 -0.62057 2.10925
thorax -6.48039 -0.276811 1.81507
lowerneck -23.4389 -4.32383 -6.90974
upperneck 26.3543 -4.28057 3.13241
head 12.9526 -2.07496 1.62292
rclavicle -4.07509e-015 1.31198e-014
rhumerus -37.2255 20.5496 -92.0007
rradius 86.9067
rwrist -12.9231
rhand -24.6543 -15.16
rfingers 7.12502
rthumb 1.84544 -45.1318
lclavicle -4.07509e-015 1.31198e-014
lhumerus -40.1296 -29.3238 103.118
lradius 92.7105
lwrist 28.2729
lhand -53.3802 2.34638
lfingers 7.12502
lthumb -25.8299 30.6125
rfemur -0.0625014 -4.7277 14.5481
rtibia 8.34513
rfoot -11.4503 -18.2175
rtoes -8.03322
lfemur -14.9217 0.24685 -14.6118
ltibia 29.5689
lfoot -20.2019 3.66629
ltoes -27.3636
184
root -10.0774 17.9058 -16.8752 -144.354 88.5991 -149.971
lowerback 11.5213 -0.63934 0.866166
upperback 0.0678349 -0.559727 2.02472
thorax -6.38922 -0.251059 1.73406
lowerneck -23.3173 -4.33611 -6.98688
upperneck 26.698 -4.26402 3.11041
head 13.0699 -2.07678 1.63526
rclavicle 4.47266e-015 -1.39149e-014
rhumerus -38.1221 20.4755 -92.7378
rradius 88.4419
rwrist -14.6587
rhand -25.3624 -16.8794
rfingers 7.12502
rthumb 1.16154 -46.856
lclavicle 4.47266e-015 -1.39149e-014
lhumerus -41.247 -29.5885 103.284
lradius 94.3872
lwrist 28.2333
lhand -52.1429 1.3805
lfingers 7.12502
lthumb -24.6445 29.8137
rfemur 1.83689 -4.54067 14.5309
rtibia 5.09749
rfoot -10.158 -18.2038
rtoes -7.56625
lfemur -14.2822 -0.419959 -14.6804
ltibia 28.8038
lfoot -20.2931 4.59053
ltoes -27.7434
185
root -10.036 17.9196 -16.8632 -142.01 88.839 -147.669
lowerback 10.9378 -0.553746 0.763617
upperback -0.176049 -0.479938 1.94497
thorax -6.3198 -0.2134 1.6892
lowerneck -23.2323 -4.33293 -6.99677
upperneck 27.0087 -4.23657 3.04951
head 13.178 -2.0724 1.62245
rclavicle 1.49089e-015 -2.38542e-014
rhumerus -39.0113 20.3588 -93.4653
rradius 90.0779
rwrist -16.2098
rhand -26.5853 -18.3445
rfingers 7.12502
rthumb -0.0195117 -48.3242
lclavicle 1.49089e-015 -2.38542e-014
lhumerus -42.1405 -29.8923 103.441
lradius 95.7406
lwrist 28.2621
lhand -51.0319 0.524361
lfingers 7.12502
lthumb -23.5792 29.0988
rfemur 4.69067 -4.32728 14.4232
rtibia -1.59028e-015
rfoot -7.98372 -18.1026
rtoes -6.79312
lfemur -13.7571 -0.929646 -14.7584
ltibia 28.1577
lfoot -20.3585 5.3866
ltoes -28.1103
186
root -9.99941 17.9299 -16.8506 -138.157 89.098 -143.846
lowerback 10.4316 -0.459752 0.599609
upperback -0.394505 -0.39157 1.87939
thorax -6.26601 -0.168447 1.69453
lowerneck -23.1771 -4.31012 -6.93484
upperneck 27.2674 -4.19552 2.95219
head 13.2672 -2.05986 1.58491
rclavicle -3.97569e-016 -1.51076e-014
rhumerus -39.8613 20.1937 -94.1368
rradius 91.758
rwrist -17.349
rhand -27.9758 -19.4277
rfingers 7.12502
rthumb -1.36258 -49.4031
lclavicle -3.97569e-016 -1.51076e-014
lhumerus -42.7953 -30.1716 103.573
lradius 96.7861
lwrist 28.4168
lhand -50.1345 -0.196126
lfingers 7.12502
lthumb -22.7182 28.4865
rfemur 4.77475 -4.09031 14.3744
rtibia 7.95139e-015
rfoot -8.24139 -18.1074
rtoes -5.98998
lfemur -13.289 -1.31087 -14.8439
ltibia 27.6113
lfoot -20.4025 6.09737
ltoes -28.6149
187
root -9.96664 17.9374 -16.8384 -131.636 89.3496 -137.312
lowerback 10.0139 -0.372383 0.394306
upperback -0.578377 -0.311392 1.8352
thorax -6.22483 -0.124913 1.74858
lowerneck -23.1333 -4.26648 -6.82805
upperneck 27.4594 -4.13738 2.84085
head 13.3288 -2.03746 1.53658
rclavicle 2.48481e-015 7.15625e-015
rhumerus -40.6359 19.9941 -94.7176
rradius 93.4169
rwrist -17.9367
rhand -29.1229 -20.2022
rfingers 7.12502
rthumb -2.47038 -50.1676
lclavicle 2.48481e-015 7.15625e-015
lhumerus -43.2456 -30.3716 103.675
lradius 97.6017
lwrist 28.7503
lhand -49.4896 -0.731392
lfingers 7.12502
lthumb -22.0991 28.0257
rfemur 4.8914 -3.85208 14.3207
rtibia 2.06736e-014
rfoot -8.44409 -18.1257
rtoes -5.43614
lfemur -12.8359 -1.62254 -14.9362
ltibia 27.1478
lfoot -20.4424 6.75897
ltoes -29.2605
188
root -9.93699 17.9424 -16.8277 -120.365 89.5613 -125.978
lowerback 9.68399 -0.308156 0.186788
upperback -0.728526 -0.257076 1.81479
thorax -6.19701 -0.0928025 1.83403
lowerneck -23.0814 -4.20348 -6.71815
upperneck 27.586 -4.0593 2.74616
head 13.3607 -2.00412 1.49736
rclavicle 3.47873e-015 -2.0276e-014
rhumerus -41.3005 19.7933 -95.1917
rradius 94.9978
rwrist -17.9681
rhand -29.7405 -20.8607
rfingers 7.12502
rthumb -3.06689 -50.8184
lclavicle 3.47873e-015 -2.0276e-014
lhumerus -43.5575 -30.4577 103.748
lradius 98.3012
lwrist 29.3151
lhand -49.0623 -1.01998
lfingers 7.12502
lthumb -21.6888 27.7851
rfemur 5.05278 -3.63781 14.2662
rtibia 6.36111e-015
rfoot -8.57677 -18.1714
rtoes -5.28425
lfemur -12.3839 -1.92691 -15.0317
ltibia 26.7566
lfoot -20.5013 7.38159
ltoes -29.9009
189
root -9.9104 17.9454 -16.8196 -101.916 89.7046 -107.427
lowerback 9.43005 -0.279014 0.0207385
upperback -0.854613 -0.240694 1.8141
thorax -6.18588 -0.0797155 1.92322
lowerneck -23.0122 -4.12458 -6.63702
upperneck 27.6691 -3.96082 2.6888
head 13.3718 -1.96003 1.48121
rclavicle 4.96962e-015 -8.74653e-015
rhumerus -41.8279 19.6337 -95.5616
rradius 96.4652
rwrist -17.5707
rhand -29.7776 -21.5625
rfingers 7.12502
rthumb -3.10265 -51.5197
lclavicle 4.96962e-015 -8.74653e-015
lhumerus -43.7979 -30.4162 103.801
lradius 98.9967
lwrist 30.1632
lhand -48.7501 -1.01197
lfingers 7.12502
lthumb -21.389 27.8275
rfemur 5.24569 -3.46864 14.2148
rtibia 7.95139e-015
rfoot -8.64791 -18.2388
rtoes -5.48347
lfemur -11.9467 -2.26546 -15.1243
ltibia 26.4323
lfoot -20.5983 7.94928
ltoes -30.3165
190
root -9.88725 17.9474 -16.8147 -78.9628 89.7712 -84.3624
lowerback 9.23164 -0.287936 -0.0693864
upperback -0.970477 -0.263946 1.82395
thorax -6.19435 -0.0879627 1.98691
lowerneck -22.932 -4.03497 -6.59084
upperneck 27.7452 -3.84586 2.66844
head 13.3786 -1.90733 1.48861
rclavicle 2.98177e-016 1.59028e-015
rhumerus -42.202 19.5556 -95.8411
rradius 97.8094
rwrist -16.956
rhand -29.4126 -22.3396
rfingers 7.12502
rthumb -2.75023 -52.3017
lclavicle 2.98177e-016 1.59028e-015
lhumerus -44.004 -30.2479 103.838
lradius 99.7638
lwrist 31.335
lhand -48.42 -0.68855
lfingers 7.12502
lthumb -21.072 28.1865
rfemur 5.43944 -3.35371 14.1707
rtibia 1.90833e-014
rfoot -8.68592 -18.3079
rtoes -5.81608
lfemur -11.555 -2.64584 -15.2058
ltibia 26.1724
lfoot -20.7394 8.4358
ltoes -30.3316
191
root -9.86799 17.9492 -16.8132 -61.5519 89.7864 -66.8607
lowerback 9.06328 -0.327243 -0.0687478
upperback -1.08845 -0.316549 1.83327
thorax -6.22135 -0.113381 2.00327
lowerneck -22.8595 -3.94167 -6.55862
upperneck 27.8523 -3.72351 2.66276
head 13.4004 -1.85057 1.50569
rclavicle -5.26779e-015 -9.93923e-015
rhumerus -42.4194 19.5867 -96.0436
rradius 99.0417
rwrist -16.3432
rhand -28.961 -23.1208
rfingers 7.12502
rthumb -2.31403 -53.088
lclavicle -5.26779e-015 -9.93923e-015
lhumerus -44.1664 -29.9611 103.856
lradius 100.623
lwrist 32.838
lhand -47.9595 -0.0700978
lfingers 7.12502
lthumb -20.6294 28.8536
rfemur 5.59822 -3.28707 14.1383
rtibia -1.59028e-014
rfoot -8.72782 -18.3561
rtoes -6.01438
lfemur -11.2421 -3.04625 -15.2686
ltibia 25.9731
lfoot -20.9151 8.82463
ltoes -29.8873
